<svg width="48" height="47" viewBox="0 0 48 47" fill="none" xmlns="http://www.w3.org/2000/svg">
<rect width="47.5" height="47.5" fill="white"/>
<path d="M2.37496 15.0416H0.791626V16.625H2.37496V15.0416Z" fill="black"/>
<path d="M2.37496 16.625H0.791626V18.2083H2.37496V16.625Z" fill="black"/>
<path d="M2.37496 18.2083H0.791626V19.7916H2.37496V18.2083Z" fill="black"/>
<path d="M2.37496 27.7083H0.791626V29.2916H2.37496V27.7083Z" fill="black"/>
<path d="M2.37496 32.4583H0.791626V34.0416H2.37496V32.4583Z" fill="black"/>
<path d="M3.95833 13.4583H2.375V15.0416H3.95833V13.4583Z" fill="black"/>
<path d="M3.95833 15.0416H2.375V16.625H3.95833V15.0416Z" fill="black"/>
<path d="M3.95833 18.2083H2.375V19.7916H3.95833V18.2083Z" fill="black"/>
<path d="M3.95833 26.125H2.375V27.7083H3.95833V26.125Z" fill="black"/>
<path d="M3.95833 27.7083H2.375V29.2916H3.95833V27.7083Z" fill="black"/>
<path d="M3.95833 29.2916H2.375V30.875H3.95833V29.2916Z" fill="black"/>
<path d="M3.95833 32.4583H2.375V34.0416H3.95833V32.4583Z" fill="black"/>
<path d="M5.54159 13.4583H3.95825V15.0416H5.54159V13.4583Z" fill="black"/>
<path d="M5.54159 18.2083H3.95825V19.7916H5.54159V18.2083Z" fill="black"/>
<path d="M5.54159 21.375H3.95825V22.9583H5.54159V21.375Z" fill="black"/>
<path d="M5.54159 22.9583H3.95825V24.5416H5.54159V22.9583Z" fill="black"/>
<path d="M5.54159 24.5416H3.95825V26.125H5.54159V24.5416Z" fill="black"/>
<path d="M5.54159 29.2916H3.95825V30.875H5.54159V29.2916Z" fill="black"/>
<path d="M5.54159 30.875H3.95825V32.4583H5.54159V30.875Z" fill="black"/>
<path d="M5.54159 32.4583H3.95825V34.0416H5.54159V32.4583Z" fill="black"/>
<path d="M7.12496 19.7916H5.54163V21.375H7.12496V19.7916Z" fill="black"/>
<path d="M7.12496 21.375H5.54163V22.9583H7.12496V21.375Z" fill="black"/>
<path d="M7.12496 27.7083H5.54163V29.2916H7.12496V27.7083Z" fill="black"/>
<path d="M7.12496 30.875H5.54163V32.4583H7.12496V30.875Z" fill="black"/>
<path d="M8.70833 18.2083H7.125V19.7916H8.70833V18.2083Z" fill="black"/>
<path d="M8.70833 19.7916H7.125V21.375H8.70833V19.7916Z" fill="black"/>
<path d="M8.70833 24.5416H7.125V26.125H8.70833V24.5416Z" fill="black"/>
<path d="M8.70833 27.7083H7.125V29.2916H8.70833V27.7083Z" fill="black"/>
<path d="M8.70833 30.875H7.125V32.4583H8.70833V30.875Z" fill="black"/>
<path d="M10.2916 15.0416H8.70825V16.625H10.2916V15.0416Z" fill="black"/>
<path d="M10.2916 16.625H8.70825V18.2083H10.2916V16.625Z" fill="black"/>
<path d="M10.2916 18.2083H8.70825V19.7916H10.2916V18.2083Z" fill="black"/>
<path d="M10.2916 19.7916H8.70825V21.375H10.2916V19.7916Z" fill="black"/>
<path d="M10.2916 21.375H8.70825V22.9583H10.2916V21.375Z" fill="black"/>
<path d="M10.2916 22.9583H8.70825V24.5416H10.2916V22.9583Z" fill="black"/>
<path d="M10.2916 26.125H8.70825V27.7083H10.2916V26.125Z" fill="black"/>
<path d="M10.2916 30.875H8.70825V32.4583H10.2916V30.875Z" fill="black"/>
<path d="M11.875 13.4583H10.2916V15.0416H11.875V13.4583Z" fill="black"/>
<path d="M11.875 16.625H10.2916V18.2083H11.875V16.625Z" fill="black"/>
<path d="M11.875 19.7916H10.2916V21.375H11.875V19.7916Z" fill="black"/>
<path d="M11.875 22.9583H10.2916V24.5416H11.875V22.9583Z" fill="black"/>
<path d="M11.875 26.125H10.2916V27.7083H11.875V26.125Z" fill="black"/>
<path d="M11.875 29.2916H10.2916V30.875H11.875V29.2916Z" fill="black"/>
<path d="M11.875 32.4583H10.2916V34.0416H11.875V32.4583Z" fill="black"/>
<path d="M13.4583 15.0416H11.875V16.625H13.4583V15.0416Z" fill="black"/>
<path d="M13.4583 16.625H11.875V18.2083H13.4583V16.625Z" fill="black"/>
<path d="M13.4583 18.2083H11.875V19.7916H13.4583V18.2083Z" fill="black"/>
<path d="M13.4583 24.5416H11.875V26.125H13.4583V24.5416Z" fill="black"/>
<path d="M13.4583 27.7083H11.875V29.2916H13.4583V27.7083Z" fill="black"/>
<path d="M13.4583 30.875H11.875V32.4583H13.4583V30.875Z" fill="black"/>
<path d="M15.0416 2.375H13.4583V3.95833H15.0416V2.375Z" fill="black"/>
<path d="M15.0416 3.95825H13.4583V5.54159H15.0416V3.95825Z" fill="black"/>
<path d="M15.0416 5.54163H13.4583V7.12496H15.0416V5.54163Z" fill="black"/>
<path d="M15.0416 8.70825H13.4583V10.2916H15.0416V8.70825Z" fill="black"/>
<path d="M15.0416 10.2916H13.4583V11.875H15.0416V10.2916Z" fill="black"/>
<path d="M15.0416 15.0416H13.4583V16.625H15.0416V15.0416Z" fill="black"/>
<path d="M15.0416 16.625H13.4583V18.2083H15.0416V16.625Z" fill="black"/>
<path d="M15.0416 19.7916H13.4583V21.375H15.0416V19.7916Z" fill="black"/>
<path d="M15.0416 21.375H13.4583V22.9583H15.0416V21.375Z" fill="black"/>
<path d="M15.0416 22.9583H13.4583V24.5416H15.0416V22.9583Z" fill="black"/>
<path d="M15.0416 26.125H13.4583V27.7083H15.0416V26.125Z" fill="black"/>
<path d="M15.0416 41.9583H13.4583V43.5416H15.0416V41.9583Z" fill="black"/>
<path d="M15.0416 43.5416H13.4583V45.125H15.0416V43.5416Z" fill="black"/>
<path d="M16.625 2.375H15.0416V3.95833H16.625V2.375Z" fill="black"/>
<path d="M16.625 7.125H15.0416V8.70833H16.625V7.125Z" fill="black"/>
<path d="M16.625 11.875H15.0416V13.4583H16.625V11.875Z" fill="black"/>
<path d="M16.625 13.4583H15.0416V15.0416H16.625V13.4583Z" fill="black"/>
<path d="M16.625 16.625H15.0416V18.2083H16.625V16.625Z" fill="black"/>
<path d="M16.625 18.2083H15.0416V19.7916H16.625V18.2083Z" fill="black"/>
<path d="M16.625 21.375H15.0416V22.9583H16.625V21.375Z" fill="black"/>
<path d="M16.625 29.2916H15.0416V30.875H16.625V29.2916Z" fill="black"/>
<path d="M16.625 30.875H15.0416V32.4583H16.625V30.875Z" fill="black"/>
<path d="M16.625 32.4583H15.0416V34.0416H16.625V32.4583Z" fill="black"/>
<path d="M16.625 34.0416H15.0416V35.625H16.625V34.0416Z" fill="black"/>
<path d="M16.625 35.625H15.0416V37.2083H16.625V35.625Z" fill="black"/>
<path d="M16.625 37.2083H15.0416V38.7916H16.625V37.2083Z" fill="black"/>
<path d="M16.625 38.7916H15.0416V40.375H16.625V38.7916Z" fill="black"/>
<path d="M16.625 40.375H15.0416V41.9583H16.625V40.375Z" fill="black"/>
<path d="M16.625 41.9583H15.0416V43.5416H16.625V41.9583Z" fill="black"/>
<path d="M16.625 45.125H15.0416V46.7083H16.625V45.125Z" fill="black"/>
<path d="M18.2083 0.791626H16.625V2.37496H18.2083V0.791626Z" fill="black"/>
<path d="M18.2083 3.95825H16.625V5.54159H18.2083V3.95825Z" fill="black"/>
<path d="M18.2083 10.2916H16.625V11.875H18.2083V10.2916Z" fill="black"/>
<path d="M18.2083 15.0416H16.625V16.625H18.2083V15.0416Z" fill="black"/>
<path d="M18.2083 16.625H16.625V18.2083H18.2083V16.625Z" fill="black"/>
<path d="M18.2083 18.2083H16.625V19.7916H18.2083V18.2083Z" fill="black"/>
<path d="M18.2083 21.375H16.625V22.9583H18.2083V21.375Z" fill="black"/>
<path d="M18.2083 24.5416H16.625V26.125H18.2083V24.5416Z" fill="black"/>
<path d="M18.2083 26.125H16.625V27.7083H18.2083V26.125Z" fill="black"/>
<path d="M18.2083 27.7083H16.625V29.2916H18.2083V27.7083Z" fill="black"/>
<path d="M18.2083 29.2916H16.625V30.875H18.2083V29.2916Z" fill="black"/>
<path d="M18.2083 32.4583H16.625V34.0416H18.2083V32.4583Z" fill="black"/>
<path d="M18.2083 35.625H16.625V37.2083H18.2083V35.625Z" fill="black"/>
<path d="M18.2083 37.2083H16.625V38.7916H18.2083V37.2083Z" fill="black"/>
<path d="M18.2083 38.7916H16.625V40.375H18.2083V38.7916Z" fill="black"/>
<path d="M18.2083 40.375H16.625V41.9583H18.2083V40.375Z" fill="black"/>
<path d="M18.2083 43.5416H16.625V45.125H18.2083V43.5416Z" fill="black"/>
<path d="M19.7916 0.791626H18.2083V2.37496H19.7916V0.791626Z" fill="black"/>
<path d="M19.7916 2.375H18.2083V3.95833H19.7916V2.375Z" fill="black"/>
<path d="M19.7916 3.95825H18.2083V5.54159H19.7916V3.95825Z" fill="black"/>
<path d="M19.7916 5.54163H18.2083V7.12496H19.7916V5.54163Z" fill="black"/>
<path d="M19.7916 7.125H18.2083V8.70833H19.7916V7.125Z" fill="black"/>
<path d="M19.7916 8.70825H18.2083V10.2916H19.7916V8.70825Z" fill="black"/>
<path d="M19.7916 13.4583H18.2083V15.0416H19.7916V13.4583Z" fill="black"/>
<path d="M19.7916 15.0416H18.2083V16.625H19.7916V15.0416Z" fill="black"/>
<path d="M19.7916 19.7916H18.2083V21.375H19.7916V19.7916Z" fill="black"/>
<path d="M19.7916 21.375H18.2083V22.9583H19.7916V21.375Z" fill="black"/>
<path d="M19.7916 22.9583H18.2083V24.5416H19.7916V22.9583Z" fill="black"/>
<path d="M19.7916 24.5416H18.2083V26.125H19.7916V24.5416Z" fill="black"/>
<path d="M19.7916 26.125H18.2083V27.7083H19.7916V26.125Z" fill="black"/>
<path d="M19.7916 29.2916H18.2083V30.875H19.7916V29.2916Z" fill="black"/>
<path d="M19.7916 38.7916H18.2083V40.375H19.7916V38.7916Z" fill="black"/>
<path d="M19.7916 45.125H18.2083V46.7083H19.7916V45.125Z" fill="black"/>
<path d="M21.375 7.125H19.7916V8.70833H21.375V7.125Z" fill="black"/>
<path d="M21.375 10.2916H19.7916V11.875H21.375V10.2916Z" fill="black"/>
<path d="M21.375 11.875H19.7916V13.4583H21.375V11.875Z" fill="black"/>
<path d="M21.375 19.7916H19.7916V21.375H21.375V19.7916Z" fill="black"/>
<path d="M21.375 26.125H19.7916V27.7083H21.375V26.125Z" fill="black"/>
<path d="M21.375 27.7083H19.7916V29.2916H21.375V27.7083Z" fill="black"/>
<path d="M21.375 29.2916H19.7916V30.875H21.375V29.2916Z" fill="black"/>
<path d="M21.375 30.875H19.7916V32.4583H21.375V30.875Z" fill="black"/>
<path d="M21.375 34.0416H19.7916V35.625H21.375V34.0416Z" fill="black"/>
<path d="M21.375 37.2083H19.7916V38.7916H21.375V37.2083Z" fill="black"/>
<path d="M21.375 41.9583H19.7916V43.5416H21.375V41.9583Z" fill="black"/>
<path d="M21.375 43.5416H19.7916V45.125H21.375V43.5416Z" fill="black"/>
<path d="M21.375 45.125H19.7916V46.7083H21.375V45.125Z" fill="black"/>
<path d="M22.9583 0.791626H21.375V2.37496H22.9583V0.791626Z" fill="black"/>
<path d="M22.9583 5.54163H21.375V7.12496H22.9583V5.54163Z" fill="black"/>
<path d="M22.9583 11.875H21.375V13.4583H22.9583V11.875Z" fill="black"/>
<path d="M22.9583 15.0416H21.375V16.625H22.9583V15.0416Z" fill="black"/>
<path d="M22.9583 16.625H21.375V18.2083H22.9583V16.625Z" fill="black"/>
<path d="M22.9583 19.7916H21.375V21.375H22.9583V19.7916Z" fill="black"/>
<path d="M22.9583 21.375H21.375V22.9583H22.9583V21.375Z" fill="black"/>
<path d="M22.9583 24.5416H21.375V26.125H22.9583V24.5416Z" fill="black"/>
<path d="M22.9583 26.125H21.375V27.7083H22.9583V26.125Z" fill="black"/>
<path d="M22.9583 30.875H21.375V32.4583H22.9583V30.875Z" fill="black"/>
<path d="M22.9583 32.4583H21.375V34.0416H22.9583V32.4583Z" fill="black"/>
<path d="M22.9583 35.625H21.375V37.2083H22.9583V35.625Z" fill="black"/>
<path d="M22.9583 37.2083H21.375V38.7916H22.9583V37.2083Z" fill="black"/>
<path d="M22.9583 40.375H21.375V41.9583H22.9583V40.375Z" fill="black"/>
<path d="M22.9583 41.9583H21.375V43.5416H22.9583V41.9583Z" fill="black"/>
<path d="M22.9583 45.125H21.375V46.7083H22.9583V45.125Z" fill="black"/>
<path d="M24.5416 2.375H22.9583V3.95833H24.5416V2.375Z" fill="black"/>
<path d="M24.5416 10.2916H22.9583V11.875H24.5416V10.2916Z" fill="black"/>
<path d="M24.5416 11.875H22.9583V13.4583H24.5416V11.875Z" fill="black"/>
<path d="M24.5416 13.4583H22.9583V15.0416H24.5416V13.4583Z" fill="black"/>
<path d="M24.5416 15.0416H22.9583V16.625H24.5416V15.0416Z" fill="black"/>
<path d="M24.5416 21.375H22.9583V22.9583H24.5416V21.375Z" fill="black"/>
<path d="M24.5416 26.125H22.9583V27.7083H24.5416V26.125Z" fill="black"/>
<path d="M24.5416 27.7083H22.9583V29.2916H24.5416V27.7083Z" fill="black"/>
<path d="M24.5416 29.2916H22.9583V30.875H24.5416V29.2916Z" fill="black"/>
<path d="M24.5416 30.875H22.9583V32.4583H24.5416V30.875Z" fill="black"/>
<path d="M24.5416 32.4583H22.9583V34.0416H24.5416V32.4583Z" fill="black"/>
<path d="M24.5416 35.625H22.9583V37.2083H24.5416V35.625Z" fill="black"/>
<path d="M24.5416 37.2083H22.9583V38.7916H24.5416V37.2083Z" fill="black"/>
<path d="M24.5416 38.7916H22.9583V40.375H24.5416V38.7916Z" fill="black"/>
<path d="M24.5416 40.375H22.9583V41.9583H24.5416V40.375Z" fill="black"/>
<path d="M24.5416 43.5416H22.9583V45.125H24.5416V43.5416Z" fill="black"/>
<path d="M24.5416 45.125H22.9583V46.7083H24.5416V45.125Z" fill="black"/>
<path d="M26.125 2.375H24.5416V3.95833H26.125V2.375Z" fill="black"/>
<path d="M26.125 3.95825H24.5416V5.54159H26.125V3.95825Z" fill="black"/>
<path d="M26.125 5.54163H24.5416V7.12496H26.125V5.54163Z" fill="black"/>
<path d="M26.125 11.875H24.5416V13.4583H26.125V11.875Z" fill="black"/>
<path d="M26.125 13.4583H24.5416V15.0416H26.125V13.4583Z" fill="black"/>
<path d="M26.125 15.0416H24.5416V16.625H26.125V15.0416Z" fill="black"/>
<path d="M26.125 16.625H24.5416V18.2083H26.125V16.625Z" fill="black"/>
<path d="M26.125 22.9583H24.5416V24.5416H26.125V22.9583Z" fill="black"/>
<path d="M26.125 26.125H24.5416V27.7083H26.125V26.125Z" fill="black"/>
<path d="M26.125 27.7083H24.5416V29.2916H26.125V27.7083Z" fill="black"/>
<path d="M26.125 29.2916H24.5416V30.875H26.125V29.2916Z" fill="black"/>
<path d="M26.125 38.7916H24.5416V40.375H26.125V38.7916Z" fill="black"/>
<path d="M26.125 40.375H24.5416V41.9583H26.125V40.375Z" fill="black"/>
<path d="M26.125 45.125H24.5416V46.7083H26.125V45.125Z" fill="black"/>
<path d="M27.7083 0.791626H26.125V2.37496H27.7083V0.791626Z" fill="black"/>
<path d="M27.7083 3.95825H26.125V5.54159H27.7083V3.95825Z" fill="black"/>
<path d="M27.7083 5.54163H26.125V7.12496H27.7083V5.54163Z" fill="black"/>
<path d="M27.7083 10.2916H26.125V11.875H27.7083V10.2916Z" fill="black"/>
<path d="M27.7083 11.875H26.125V13.4583H27.7083V11.875Z" fill="black"/>
<path d="M27.7083 13.4583H26.125V15.0416H27.7083V13.4583Z" fill="black"/>
<path d="M27.7083 15.0416H26.125V16.625H27.7083V15.0416Z" fill="black"/>
<path d="M27.7083 16.625H26.125V18.2083H27.7083V16.625Z" fill="black"/>
<path d="M27.7083 18.2083H26.125V19.7916H27.7083V18.2083Z" fill="black"/>
<path d="M27.7083 19.7916H26.125V21.375H27.7083V19.7916Z" fill="black"/>
<path d="M27.7083 21.375H26.125V22.9583H27.7083V21.375Z" fill="black"/>
<path d="M27.7083 22.9583H26.125V24.5416H27.7083V22.9583Z" fill="black"/>
<path d="M27.7083 26.125H26.125V27.7083H27.7083V26.125Z" fill="black"/>
<path d="M27.7083 27.7083H26.125V29.2916H27.7083V27.7083Z" fill="black"/>
<path d="M27.7083 29.2916H26.125V30.875H27.7083V29.2916Z" fill="black"/>
<path d="M27.7083 37.2083H26.125V38.7916H27.7083V37.2083Z" fill="black"/>
<path d="M27.7083 38.7916H26.125V40.375H27.7083V38.7916Z" fill="black"/>
<path d="M27.7083 40.375H26.125V41.9583H27.7083V40.375Z" fill="black"/>
<path d="M29.2916 2.375H27.7083V3.95833H29.2916V2.375Z" fill="black"/>
<path d="M29.2916 7.125H27.7083V8.70833H29.2916V7.125Z" fill="black"/>
<path d="M29.2916 11.875H27.7083V13.4583H29.2916V11.875Z" fill="black"/>
<path d="M29.2916 15.0416H27.7083V16.625H29.2916V15.0416Z" fill="black"/>
<path d="M29.2916 18.2083H27.7083V19.7916H29.2916V18.2083Z" fill="black"/>
<path d="M29.2916 19.7916H27.7083V21.375H29.2916V19.7916Z" fill="black"/>
<path d="M29.2916 21.375H27.7083V22.9583H29.2916V21.375Z" fill="black"/>
<path d="M29.2916 22.9583H27.7083V24.5416H29.2916V22.9583Z" fill="black"/>
<path d="M29.2916 26.125H27.7083V27.7083H29.2916V26.125Z" fill="black"/>
<path d="M29.2916 27.7083H27.7083V29.2916H29.2916V27.7083Z" fill="black"/>
<path d="M29.2916 32.4583H27.7083V34.0416H29.2916V32.4583Z" fill="black"/>
<path d="M29.2916 34.0416H27.7083V35.625H29.2916V34.0416Z" fill="black"/>
<path d="M29.2916 37.2083H27.7083V38.7916H29.2916V37.2083Z" fill="black"/>
<path d="M29.2916 41.9583H27.7083V43.5416H29.2916V41.9583Z" fill="black"/>
<path d="M30.875 0.791626H29.2916V2.37496H30.875V0.791626Z" fill="black"/>
<path d="M30.875 7.125H29.2916V8.70833H30.875V7.125Z" fill="black"/>
<path d="M30.875 10.2916H29.2916V11.875H30.875V10.2916Z" fill="black"/>
<path d="M30.875 22.9583H29.2916V24.5416H30.875V22.9583Z" fill="black"/>
<path d="M30.875 24.5416H29.2916V26.125H30.875V24.5416Z" fill="black"/>
<path d="M30.875 26.125H29.2916V27.7083H30.875V26.125Z" fill="black"/>
<path d="M30.875 32.4583H29.2916V34.0416H30.875V32.4583Z" fill="black"/>
<path d="M30.875 35.625H29.2916V37.2083H30.875V35.625Z" fill="black"/>
<path d="M30.875 37.2083H29.2916V38.7916H30.875V37.2083Z" fill="black"/>
<path d="M30.875 40.375H29.2916V41.9583H30.875V40.375Z" fill="black"/>
<path d="M32.4583 5.54163H30.875V7.12496H32.4583V5.54163Z" fill="black"/>
<path d="M32.4583 15.0416H30.875V16.625H32.4583V15.0416Z" fill="black"/>
<path d="M32.4583 16.625H30.875V18.2083H32.4583V16.625Z" fill="black"/>
<path d="M32.4583 18.2083H30.875V19.7916H32.4583V18.2083Z" fill="black"/>
<path d="M32.4583 19.7916H30.875V21.375H32.4583V19.7916Z" fill="black"/>
<path d="M32.4583 22.9583H30.875V24.5416H32.4583V22.9583Z" fill="black"/>
<path d="M32.4583 27.7083H30.875V29.2916H32.4583V27.7083Z" fill="black"/>
<path d="M32.4583 29.2916H30.875V30.875H32.4583V29.2916Z" fill="black"/>
<path d="M32.4583 32.4583H30.875V34.0416H32.4583V32.4583Z" fill="black"/>
<path d="M32.4583 34.0416H30.875V35.625H32.4583V34.0416Z" fill="black"/>
<path d="M32.4583 35.625H30.875V37.2083H32.4583V35.625Z" fill="black"/>
<path d="M32.4583 37.2083H30.875V38.7916H32.4583V37.2083Z" fill="black"/>
<path d="M32.4583 41.9583H30.875V43.5416H32.4583V41.9583Z" fill="black"/>
<path d="M34.0416 2.375H32.4583V3.95833H34.0416V2.375Z" fill="black"/>
<path d="M34.0416 3.95825H32.4583V5.54159H34.0416V3.95825Z" fill="black"/>
<path d="M34.0416 5.54163H32.4583V7.12496H34.0416V5.54163Z" fill="black"/>
<path d="M34.0416 7.125H32.4583V8.70833H34.0416V7.125Z" fill="black"/>
<path d="M34.0416 8.70825H32.4583V10.2916H34.0416V8.70825Z" fill="black"/>
<path d="M34.0416 10.2916H32.4583V11.875H34.0416V10.2916Z" fill="black"/>
<path d="M34.0416 16.625H32.4583V18.2083H34.0416V16.625Z" fill="black"/>
<path d="M34.0416 18.2083H32.4583V19.7916H34.0416V18.2083Z" fill="black"/>
<path d="M34.0416 26.125H32.4583V27.7083H34.0416V26.125Z" fill="black"/>
<path d="M34.0416 27.7083H32.4583V29.2916H34.0416V27.7083Z" fill="black"/>
<path d="M34.0416 29.2916H32.4583V30.875H34.0416V29.2916Z" fill="black"/>
<path d="M34.0416 32.4583H32.4583V34.0416H34.0416V32.4583Z" fill="black"/>
<path d="M34.0416 34.0416H32.4583V35.625H34.0416V34.0416Z" fill="black"/>
<path d="M34.0416 35.625H32.4583V37.2083H34.0416V35.625Z" fill="black"/>
<path d="M34.0416 37.2083H32.4583V38.7916H34.0416V37.2083Z" fill="black"/>
<path d="M34.0416 38.7916H32.4583V40.375H34.0416V38.7916Z" fill="black"/>
<path d="M34.0416 40.375H32.4583V41.9583H34.0416V40.375Z" fill="black"/>
<path d="M34.0416 41.9583H32.4583V43.5416H34.0416V41.9583Z" fill="black"/>
<path d="M34.0416 43.5416H32.4583V45.125H34.0416V43.5416Z" fill="black"/>
<path d="M35.625 13.4583H34.0416V15.0416H35.625V13.4583Z" fill="black"/>
<path d="M35.625 16.625H34.0416V18.2083H35.625V16.625Z" fill="black"/>
<path d="M35.625 19.7916H34.0416V21.375H35.625V19.7916Z" fill="black"/>
<path d="M35.625 21.375H34.0416V22.9583H35.625V21.375Z" fill="black"/>
<path d="M35.625 22.9583H34.0416V24.5416H35.625V22.9583Z" fill="black"/>
<path d="M35.625 30.875H34.0416V32.4583H35.625V30.875Z" fill="black"/>
<path d="M35.625 32.4583H34.0416V34.0416H35.625V32.4583Z" fill="black"/>
<path d="M35.625 38.7916H34.0416V40.375H35.625V38.7916Z" fill="black"/>
<path d="M35.625 40.375H34.0416V41.9583H35.625V40.375Z" fill="black"/>
<path d="M35.625 43.5416H34.0416V45.125H35.625V43.5416Z" fill="black"/>
<path d="M35.625 45.125H34.0416V46.7083H35.625V45.125Z" fill="black"/>
<path d="M37.2083 15.0416H35.625V16.625H37.2083V15.0416Z" fill="black"/>
<path d="M37.2083 18.2083H35.625V19.7916H37.2083V18.2083Z" fill="black"/>
<path d="M37.2083 22.9583H35.625V24.5416H37.2083V22.9583Z" fill="black"/>
<path d="M37.2083 27.7083H35.625V29.2916H37.2083V27.7083Z" fill="black"/>
<path d="M37.2083 30.875H35.625V32.4583H37.2083V30.875Z" fill="black"/>
<path d="M37.2083 32.4583H35.625V34.0416H37.2083V32.4583Z" fill="black"/>
<path d="M37.2083 35.625H35.625V37.2083H37.2083V35.625Z" fill="black"/>
<path d="M37.2083 38.7916H35.625V40.375H37.2083V38.7916Z" fill="black"/>
<path d="M37.2083 41.9583H35.625V43.5416H37.2083V41.9583Z" fill="black"/>
<path d="M37.2083 43.5416H35.625V45.125H37.2083V43.5416Z" fill="black"/>
<path d="M38.7916 13.4583H37.2083V15.0416H38.7916V13.4583Z" fill="black"/>
<path d="M38.7916 15.0416H37.2083V16.625H38.7916V15.0416Z" fill="black"/>
<path d="M38.7916 19.7916H37.2083V21.375H38.7916V19.7916Z" fill="black"/>
<path d="M38.7916 22.9583H37.2083V24.5416H38.7916V22.9583Z" fill="black"/>
<path d="M38.7916 24.5416H37.2083V26.125H38.7916V24.5416Z" fill="black"/>
<path d="M38.7916 26.125H37.2083V27.7083H38.7916V26.125Z" fill="black"/>
<path d="M38.7916 29.2916H37.2083V30.875H38.7916V29.2916Z" fill="black"/>
<path d="M38.7916 32.4583H37.2083V34.0416H38.7916V32.4583Z" fill="black"/>
<path d="M38.7916 38.7916H37.2083V40.375H38.7916V38.7916Z" fill="black"/>
<path d="M40.375 15.0416H38.7916V16.625H40.375V15.0416Z" fill="black"/>
<path d="M40.375 16.625H38.7916V18.2083H40.375V16.625Z" fill="black"/>
<path d="M40.375 18.2083H38.7916V19.7916H40.375V18.2083Z" fill="black"/>
<path d="M40.375 19.7916H38.7916V21.375H40.375V19.7916Z" fill="black"/>
<path d="M40.375 24.5416H38.7916V26.125H40.375V24.5416Z" fill="black"/>
<path d="M40.375 29.2916H38.7916V30.875H40.375V29.2916Z" fill="black"/>
<path d="M40.375 32.4583H38.7916V34.0416H40.375V32.4583Z" fill="black"/>
<path d="M40.375 34.0416H38.7916V35.625H40.375V34.0416Z" fill="black"/>
<path d="M40.375 35.625H38.7916V37.2083H40.375V35.625Z" fill="black"/>
<path d="M40.375 37.2083H38.7916V38.7916H40.375V37.2083Z" fill="black"/>
<path d="M40.375 38.7916H38.7916V40.375H40.375V38.7916Z" fill="black"/>
<path d="M40.375 40.375H38.7916V41.9583H40.375V40.375Z" fill="black"/>
<path d="M40.375 41.9583H38.7916V43.5416H40.375V41.9583Z" fill="black"/>
<path d="M40.375 45.125H38.7916V46.7083H40.375V45.125Z" fill="black"/>
<path d="M41.9583 13.4583H40.375V15.0416H41.9583V13.4583Z" fill="black"/>
<path d="M41.9583 15.0416H40.375V16.625H41.9583V15.0416Z" fill="black"/>
<path d="M41.9583 19.7916H40.375V21.375H41.9583V19.7916Z" fill="black"/>
<path d="M41.9583 26.125H40.375V27.7083H41.9583V26.125Z" fill="black"/>
<path d="M41.9583 27.7083H40.375V29.2916H41.9583V27.7083Z" fill="black"/>
<path d="M41.9583 29.2916H40.375V30.875H41.9583V29.2916Z" fill="black"/>
<path d="M41.9583 30.875H40.375V32.4583H41.9583V30.875Z" fill="black"/>
<path d="M41.9583 38.7916H40.375V40.375H41.9583V38.7916Z" fill="black"/>
<path d="M41.9583 40.375H40.375V41.9583H41.9583V40.375Z" fill="black"/>
<path d="M41.9583 43.5416H40.375V45.125H41.9583V43.5416Z" fill="black"/>
<path d="M43.5416 13.4583H41.9583V15.0416H43.5416V13.4583Z" fill="black"/>
<path d="M43.5416 18.2083H41.9583V19.7916H43.5416V18.2083Z" fill="black"/>
<path d="M43.5416 21.375H41.9583V22.9583H43.5416V21.375Z" fill="black"/>
<path d="M43.5416 24.5416H41.9583V26.125H43.5416V24.5416Z" fill="black"/>
<path d="M43.5416 26.125H41.9583V27.7083H43.5416V26.125Z" fill="black"/>
<path d="M43.5416 32.4583H41.9583V34.0416H43.5416V32.4583Z" fill="black"/>
<path d="M43.5416 37.2083H41.9583V38.7916H43.5416V37.2083Z" fill="black"/>
<path d="M43.5416 41.9583H41.9583V43.5416H43.5416V41.9583Z" fill="black"/>
<path d="M43.5416 45.125H41.9583V46.7083H43.5416V45.125Z" fill="black"/>
<path d="M45.125 13.4583H43.5416V15.0416H45.125V13.4583Z" fill="black"/>
<path d="M45.125 16.625H43.5416V18.2083H45.125V16.625Z" fill="black"/>
<path d="M45.125 18.2083H43.5416V19.7916H45.125V18.2083Z" fill="black"/>
<path d="M45.125 19.7916H43.5416V21.375H45.125V19.7916Z" fill="black"/>
<path d="M45.125 21.375H43.5416V22.9583H45.125V21.375Z" fill="black"/>
<path d="M45.125 26.125H43.5416V27.7083H45.125V26.125Z" fill="black"/>
<path d="M45.125 30.875H43.5416V32.4583H45.125V30.875Z" fill="black"/>
<path d="M45.125 34.0416H43.5416V35.625H45.125V34.0416Z" fill="black"/>
<path d="M45.125 38.7916H43.5416V40.375H45.125V38.7916Z" fill="black"/>
<path d="M45.125 40.375H43.5416V41.9583H45.125V40.375Z" fill="black"/>
<path d="M45.125 43.5416H43.5416V45.125H45.125V43.5416Z" fill="black"/>
<path d="M46.7083 21.375H45.125V22.9583H46.7083V21.375Z" fill="black"/>
<path d="M46.7083 22.9583H45.125V24.5416H46.7083V22.9583Z" fill="black"/>
<path d="M46.7083 24.5416H45.125V26.125H46.7083V24.5416Z" fill="black"/>
<path d="M46.7083 26.125H45.125V27.7083H46.7083V26.125Z" fill="black"/>
<path d="M46.7083 29.2916H45.125V30.875H46.7083V29.2916Z" fill="black"/>
<path d="M46.7083 30.875H45.125V32.4583H46.7083V30.875Z" fill="black"/>
<path d="M46.7083 32.4583H45.125V34.0416H46.7083V32.4583Z" fill="black"/>
<path d="M46.7083 34.0416H45.125V35.625H46.7083V34.0416Z" fill="black"/>
<path d="M46.7083 37.2083H45.125V38.7916H46.7083V37.2083Z" fill="black"/>
<path d="M46.7083 40.375H45.125V41.9583H46.7083V40.375Z" fill="black"/>
<path d="M46.7083 41.9583H45.125V43.5416H46.7083V41.9583Z" fill="black"/>
<path d="M46.7083 43.5416H45.125V45.125H46.7083V43.5416Z" fill="black"/>
<path d="M2.37496 0.791626H0.791626V2.37496H2.37496V0.791626Z" fill="black"/>
<path d="M2.37496 2.375H0.791626V3.95833H2.37496V2.375Z" fill="black"/>
<path d="M2.37496 3.95825H0.791626V5.54159H2.37496V3.95825Z" fill="black"/>
<path d="M2.37496 5.54163H0.791626V7.12496H2.37496V5.54163Z" fill="black"/>
<path d="M2.37496 7.125H0.791626V8.70833H2.37496V7.125Z" fill="black"/>
<path d="M2.37496 8.70825H0.791626V10.2916H2.37496V8.70825Z" fill="black"/>
<path d="M2.37496 10.2916H0.791626V11.875H2.37496V10.2916Z" fill="black"/>
<path d="M3.95833 0.791626H2.375V2.37496H3.95833V0.791626Z" fill="black"/>
<path d="M3.95833 10.2916H2.375V11.875H3.95833V10.2916Z" fill="black"/>
<path d="M5.54159 0.791626H3.95825V2.37496H5.54159V0.791626Z" fill="black"/>
<path d="M5.54159 10.2916H3.95825V11.875H5.54159V10.2916Z" fill="black"/>
<path d="M7.12496 0.791626H5.54163V2.37496H7.12496V0.791626Z" fill="black"/>
<path d="M7.12496 10.2916H5.54163V11.875H7.12496V10.2916Z" fill="black"/>
<path d="M8.70833 0.791626H7.125V2.37496H8.70833V0.791626Z" fill="black"/>
<path d="M8.70833 10.2916H7.125V11.875H8.70833V10.2916Z" fill="black"/>
<path d="M10.2916 0.791626H8.70825V2.37496H10.2916V0.791626Z" fill="black"/>
<path d="M10.2916 10.2916H8.70825V11.875H10.2916V10.2916Z" fill="black"/>
<path d="M11.875 0.791626H10.2916V2.37496H11.875V0.791626Z" fill="black"/>
<path d="M11.875 2.375H10.2916V3.95833H11.875V2.375Z" fill="black"/>
<path d="M11.875 3.95825H10.2916V5.54159H11.875V3.95825Z" fill="black"/>
<path d="M11.875 5.54163H10.2916V7.12496H11.875V5.54163Z" fill="black"/>
<path d="M11.875 7.125H10.2916V8.70833H11.875V7.125Z" fill="black"/>
<path d="M11.875 8.70825H10.2916V10.2916H11.875V8.70825Z" fill="black"/>
<path d="M11.875 10.2916H10.2916V11.875H11.875V10.2916Z" fill="black"/>
<path d="M5.54171 3.95837H3.95837V5.54171H5.54171V3.95837Z" fill="black"/>
<path d="M5.54171 5.54175H3.95837V7.12508H5.54171V5.54175Z" fill="black"/>
<path d="M5.54171 7.125H3.95837V8.70833H5.54171V7.125Z" fill="black"/>
<path d="M7.12508 3.95837H5.54175V5.54171H7.12508V3.95837Z" fill="black"/>
<path d="M7.12508 5.54175H5.54175V7.12508H7.12508V5.54175Z" fill="black"/>
<path d="M7.12508 7.125H5.54175V8.70833H7.12508V7.125Z" fill="black"/>
<path d="M8.70833 3.95837H7.125V5.54171H8.70833V3.95837Z" fill="black"/>
<path d="M8.70833 5.54175H7.125V7.12508H8.70833V5.54175Z" fill="black"/>
<path d="M8.70833 7.125H7.125V8.70833H8.70833V7.125Z" fill="black"/>
<path d="M37.2083 0.791626H35.625V2.37496H37.2083V0.791626Z" fill="black"/>
<path d="M37.2083 2.375H35.625V3.95833H37.2083V2.375Z" fill="black"/>
<path d="M37.2083 3.95825H35.625V5.54159H37.2083V3.95825Z" fill="black"/>
<path d="M37.2083 5.54163H35.625V7.12496H37.2083V5.54163Z" fill="black"/>
<path d="M37.2083 7.125H35.625V8.70833H37.2083V7.125Z" fill="black"/>
<path d="M37.2083 8.70825H35.625V10.2916H37.2083V8.70825Z" fill="black"/>
<path d="M37.2083 10.2916H35.625V11.875H37.2083V10.2916Z" fill="black"/>
<path d="M38.7917 0.791626H37.2084V2.37496H38.7917V0.791626Z" fill="black"/>
<path d="M38.7917 10.2916H37.2084V11.875H38.7917V10.2916Z" fill="black"/>
<path d="M40.375 0.791626H38.7916V2.37496H40.375V0.791626Z" fill="black"/>
<path d="M40.375 10.2916H38.7916V11.875H40.375V10.2916Z" fill="black"/>
<path d="M41.9583 0.791626H40.375V2.37496H41.9583V0.791626Z" fill="black"/>
<path d="M41.9583 10.2916H40.375V11.875H41.9583V10.2916Z" fill="black"/>
<path d="M43.5417 0.791626H41.9584V2.37496H43.5417V0.791626Z" fill="black"/>
<path d="M43.5417 10.2916H41.9584V11.875H43.5417V10.2916Z" fill="black"/>
<path d="M45.125 0.791626H43.5416V2.37496H45.125V0.791626Z" fill="black"/>
<path d="M45.125 10.2916H43.5416V11.875H45.125V10.2916Z" fill="black"/>
<path d="M46.7083 0.791626H45.125V2.37496H46.7083V0.791626Z" fill="black"/>
<path d="M46.7083 2.375H45.125V3.95833H46.7083V2.375Z" fill="black"/>
<path d="M46.7083 3.95825H45.125V5.54159H46.7083V3.95825Z" fill="black"/>
<path d="M46.7083 5.54163H45.125V7.12496H46.7083V5.54163Z" fill="black"/>
<path d="M46.7083 7.125H45.125V8.70833H46.7083V7.125Z" fill="black"/>
<path d="M46.7083 8.70825H45.125V10.2916H46.7083V8.70825Z" fill="black"/>
<path d="M46.7083 10.2916H45.125V11.875H46.7083V10.2916Z" fill="black"/>
<path d="M40.375 3.95837H38.7916V5.54171H40.375V3.95837Z" fill="black"/>
<path d="M40.375 5.54175H38.7916V7.12508H40.375V5.54175Z" fill="black"/>
<path d="M40.375 7.125H38.7916V8.70833H40.375V7.125Z" fill="black"/>
<path d="M41.9583 3.95837H40.375V5.54171H41.9583V3.95837Z" fill="black"/>
<path d="M41.9583 5.54175H40.375V7.12508H41.9583V5.54175Z" fill="black"/>
<path d="M41.9583 7.125H40.375V8.70833H41.9583V7.125Z" fill="black"/>
<path d="M43.5416 3.95837H41.9583V5.54171H43.5416V3.95837Z" fill="black"/>
<path d="M43.5416 5.54175H41.9583V7.12508H43.5416V5.54175Z" fill="black"/>
<path d="M43.5416 7.125H41.9583V8.70833H43.5416V7.125Z" fill="black"/>
<path d="M2.37496 35.625H0.791626V37.2083H2.37496V35.625Z" fill="black"/>
<path d="M2.37496 37.2084H0.791626V38.7917H2.37496V37.2084Z" fill="black"/>
<path d="M2.37496 38.7916H0.791626V40.375H2.37496V38.7916Z" fill="black"/>
<path d="M2.37496 40.375H0.791626V41.9583H2.37496V40.375Z" fill="black"/>
<path d="M2.37496 41.9584H0.791626V43.5417H2.37496V41.9584Z" fill="black"/>
<path d="M2.37496 43.5416H0.791626V45.125H2.37496V43.5416Z" fill="black"/>
<path d="M2.37496 45.125H0.791626V46.7083H2.37496V45.125Z" fill="black"/>
<path d="M3.95833 35.625H2.375V37.2083H3.95833V35.625Z" fill="black"/>
<path d="M3.95833 45.125H2.375V46.7083H3.95833V45.125Z" fill="black"/>
<path d="M5.54159 35.625H3.95825V37.2083H5.54159V35.625Z" fill="black"/>
<path d="M5.54159 45.125H3.95825V46.7083H5.54159V45.125Z" fill="black"/>
<path d="M7.12496 35.625H5.54163V37.2083H7.12496V35.625Z" fill="black"/>
<path d="M7.12496 45.125H5.54163V46.7083H7.12496V45.125Z" fill="black"/>
<path d="M8.70833 35.625H7.125V37.2083H8.70833V35.625Z" fill="black"/>
<path d="M8.70833 45.125H7.125V46.7083H8.70833V45.125Z" fill="black"/>
<path d="M10.2916 35.625H8.70825V37.2083H10.2916V35.625Z" fill="black"/>
<path d="M10.2916 45.125H8.70825V46.7083H10.2916V45.125Z" fill="black"/>
<path d="M11.875 35.625H10.2916V37.2083H11.875V35.625Z" fill="black"/>
<path d="M11.875 37.2084H10.2916V38.7917H11.875V37.2084Z" fill="black"/>
<path d="M11.875 38.7916H10.2916V40.375H11.875V38.7916Z" fill="black"/>
<path d="M11.875 40.375H10.2916V41.9583H11.875V40.375Z" fill="black"/>
<path d="M11.875 41.9584H10.2916V43.5417H11.875V41.9584Z" fill="black"/>
<path d="M11.875 43.5416H10.2916V45.125H11.875V43.5416Z" fill="black"/>
<path d="M11.875 45.125H10.2916V46.7083H11.875V45.125Z" fill="black"/>
<path d="M5.54171 38.7916H3.95837V40.375H5.54171V38.7916Z" fill="black"/>
<path d="M5.54171 40.375H3.95837V41.9583H5.54171V40.375Z" fill="black"/>
<path d="M5.54171 41.9583H3.95837V43.5416H5.54171V41.9583Z" fill="black"/>
<path d="M7.12508 38.7916H5.54175V40.375H7.12508V38.7916Z" fill="black"/>
<path d="M7.12508 40.375H5.54175V41.9583H7.12508V40.375Z" fill="black"/>
<path d="M7.12508 41.9583H5.54175V43.5416H7.12508V41.9583Z" fill="black"/>
<path d="M8.70833 38.7916H7.125V40.375H8.70833V38.7916Z" fill="black"/>
<path d="M8.70833 40.375H7.125V41.9583H8.70833V40.375Z" fill="black"/>
<path d="M8.70833 41.9583H7.125V43.5416H8.70833V41.9583Z" fill="black"/>
</svg>
